<svg width="102" height="109" viewBox="0 0 102 109" fill="none" xmlns="http://www.w3.org/2000/svg">
<path d="M99.751 59.7835C100.5 59.1174 100.917 58.2015 101 57.1191C101.083 54.9542 99.5012 53.2057 97.3363 53.0391C96.3371 52.9559 95.338 53.3722 94.5886 53.955L24.8134 92.1732C23.2314 92.8393 21.8159 94.005 20.9 95.587C18.4854 99.5837 19.8176 104.746 23.8975 107.161C26.7285 108.826 30.1423 108.659 32.8068 106.994C32.9733 106.828 33.2231 106.744 33.3896 106.578L98.3355 60.9492C98.6685 60.6994 99.5844 60.0333 99.751 59.7835Z" fill="url(#paint0_linear)"/>
<path d="M99.9175 54.2048L46.7951 2.0816C45.6294 0.832639 43.9641 0 42.049 0C38.4687 0 35.6377 2.91424 35.6377 6.41132C35.6377 8.15987 36.3038 9.65862 37.3862 10.8243C37.7193 11.1574 38.0524 11.4072 38.3854 11.657L94.5053 59.7002C95.1714 60.2831 96.0041 60.6994 97.0032 60.7827C99.1681 60.8659 100.917 59.2839 101.083 57.1191C101.083 56.0366 100.667 54.9542 99.9175 54.2048Z" fill="url(#paint1_linear)"/>
<path d="M48.5437 49.5421C48.4604 49.5421 15.7377 23.7302 15.0716 23.3139C14.572 23.0641 14.0724 22.8143 13.5728 22.5645C8.74351 20.7327 3.41462 23.2306 1.58281 28.06C0.00079906 32.3064 1.74934 36.9692 5.41295 39.2173C5.9958 39.5504 6.49539 39.8002 7.07823 39.9667C7.41129 40.1332 44.8801 55.6203 44.8801 55.6203C46.3788 56.2864 48.1274 55.8701 49.1265 54.6212C50.3755 53.0391 50.1257 50.791 48.5437 49.5421Z" fill="url(#paint2_linear)"/>
<path d="M42.0491 0C40.6336 0 39.3013 0.499584 38.2189 1.24896L5.07987 23.5637C4.9966 23.647 4.91334 23.647 4.91334 23.7302H4.83007C3.41459 24.7294 2.24889 26.2281 1.58278 27.9767C-0.249027 32.806 2.24889 38.2182 7.0782 39.9667C10.0757 41.1324 13.323 40.5495 15.7377 38.801C16.3205 38.3847 16.8201 37.9684 17.2364 37.4688L46.0457 11.4904C47.5445 10.3247 48.5436 8.49292 48.5436 6.41132C48.5436 2.91424 45.6294 0 42.0491 0Z" fill="url(#paint3_linear)"/>
<path d="M72.2738 31.1407H29.8092V73.6053H72.2738V31.1407Z" fill="black"/>
<path d="M49.3762 65.612H33.4728V68.2764H49.3762V65.612Z" fill="white"/>
<path d="M33.3063 42.2981L34.5552 41.1324C34.8883 41.5487 35.2213 41.7985 35.6377 41.7985C36.1372 41.7985 36.387 41.4655 36.387 40.7993V36.3864H38.3021V40.7993C38.3021 41.632 38.0523 42.2981 37.636 42.7144C37.2197 43.1307 36.5536 43.3805 35.7209 43.3805C34.472 43.4638 33.8059 42.9642 33.3063 42.2981Z" fill="white"/>
<path d="M38.7184 36.4696H44.2971V38.0516H40.6335V39.1341H43.964V40.6328H40.6335V41.7152H44.3803V43.3805H38.8016L38.7184 36.4696Z" fill="white"/>
<path d="M46.7951 38.1349H44.7135V36.4696H50.7918V38.1349H48.7102V43.3805H46.7951V38.1349Z" fill="white"/>
<path d="M33.4728 44.9625H37.0531C37.8858 44.9625 38.5519 45.2123 38.9682 45.5454C39.218 45.7952 39.3845 46.2115 39.3845 46.7111C39.3845 47.5437 38.9682 47.96 38.3021 48.2931C39.1347 48.5429 39.6343 49.0425 39.6343 49.9584C39.6343 51.1241 38.6351 51.8734 37.0531 51.8734H33.4728V44.9625ZM37.4694 47.1274C37.4694 46.7111 37.1364 46.5445 36.6368 46.5445H35.3878V47.7935H36.5535C37.1364 47.7102 37.4694 47.5437 37.4694 47.1274ZM36.8033 49.1257H35.3046V50.3747H36.8033C37.3862 50.3747 37.7192 50.1249 37.7192 49.7086C37.7192 49.2923 37.3862 49.1257 36.8033 49.1257Z" fill="white"/>
<path d="M39.9674 44.9625H43.2147C44.2971 44.9625 44.9632 45.2123 45.4628 45.7119C45.8791 46.1282 46.0457 46.6278 46.0457 47.2939C46.0457 48.3763 45.4628 49.0425 44.6302 49.4588L46.2955 51.8734H44.1306L42.7151 49.7918H41.8825V51.8734H39.9674V44.9625ZM43.1314 48.2931C43.7975 48.2931 44.1306 47.96 44.1306 47.4604C44.1306 46.8776 43.7143 46.6278 43.1314 46.6278H41.8825V48.2931H43.1314Z" fill="white"/>
<path d="M48.2938 44.9625H50.1256L53.0398 51.9567H50.9582L50.4586 50.7077H47.7942L47.2946 51.9567H45.2963L48.2938 44.9625ZM49.959 49.1257L49.2097 47.2107L48.4603 49.1257H49.959Z" fill="white"/>
<path d="M53.2897 44.9625H55.2047V51.8734H53.2897V44.9625Z" fill="white"/>
<path d="M55.7042 44.9625H57.4528L60.2837 48.6261V44.9625H62.1988V51.8734H60.5335L57.6193 48.1266V51.9567H55.7042V44.9625Z" fill="white"/>
<path d="M62.3654 50.8743L63.4478 49.6253C64.1139 50.2082 64.8633 50.458 65.6959 50.458C66.1955 50.458 66.5286 50.2914 66.5286 49.9584C66.5286 49.6253 66.2788 49.5421 65.3629 49.2923C63.8641 48.9592 62.7817 48.5429 62.7817 47.1274C62.7817 45.8784 63.7808 44.8793 65.4461 44.8793C66.6118 44.8793 67.5277 45.2123 68.2771 45.7952L67.2779 47.1274C66.6118 46.7111 65.9457 46.4613 65.3629 46.4613C64.8633 46.4613 64.6967 46.6278 64.6967 46.8776C64.6967 47.2107 64.9465 47.2939 65.8624 47.5437C67.4445 47.8768 68.4436 48.3764 68.4436 49.7086C68.4436 51.1241 67.3612 51.9567 65.6127 51.9567C64.3637 52.04 63.198 51.6237 62.3654 50.8743Z" fill="white"/>
<path d="M33.6598 60.7858H35.5998V58.7858H36.5598C38.2998 58.7858 39.5698 57.9158 39.5698 56.2658C39.5698 54.6958 38.4298 53.7858 36.6598 53.7858H33.6598V60.7858ZM35.5998 57.2658V55.4158H36.5098C37.2098 55.4158 37.6298 55.7358 37.6298 56.3358C37.6298 56.9058 37.2098 57.2658 36.5198 57.2658H35.5998Z" fill="white"/>
<path d="M39.6883 60.7858H45.0183V59.0858H41.6283V53.7858H39.6883V60.7858Z" fill="white"/>
<path d="M48.1051 60.9158C50.0951 60.9158 51.3851 59.9258 51.3851 57.6658V53.7858H49.4151V57.7258C49.4151 58.7058 48.9051 59.1658 48.1251 59.1658C47.3451 59.1658 46.8351 58.6858 46.8351 57.6758V53.7858H44.8651V57.7158C44.8651 59.9058 46.1151 60.9158 48.1051 60.9158Z" fill="white"/>
<path d="M55.4032 60.9258C56.6732 60.9258 57.7032 60.4558 58.4432 59.8458V56.6958H55.2232V58.1158H56.6032V58.9658C56.3132 59.1558 55.9532 59.2558 55.4832 59.2558C54.3732 59.2558 53.5832 58.4458 53.5832 57.3158C53.5832 56.2258 54.3632 55.3758 55.3732 55.3758C56.0632 55.3758 56.5632 55.6158 57.0632 56.0358L58.2032 54.6658C57.4632 54.0258 56.5932 53.6458 55.3632 53.6458C53.1932 53.6458 51.5932 55.2458 51.5932 57.2858C51.5932 59.4258 53.2232 60.9258 55.4032 60.9258Z" fill="white"/>
<path d="M58.8588 60.7858H60.8088V53.7858H58.8588V60.7858Z" fill="white"/>
<path d="M61.3903 60.7858H63.3103V56.9458L66.3003 60.7858H68.0003V53.7858H66.0803V57.4858L63.2003 53.7858H61.3903V60.7858Z" fill="white"/>
<defs>
<linearGradient id="paint0_linear" x1="27.5122" y1="100.381" x2="92.7903" y2="60.9825" gradientUnits="userSpaceOnUse">
<stop stop-color="#FCEE39"/>
<stop offset="1" stop-color="#F37B3D"/>
</linearGradient>
<linearGradient id="paint1_linear" x1="41.2669" y1="5.75212" x2="100.848" y2="57.9139" gradientUnits="userSpaceOnUse">
<stop stop-color="#EF5A6B"/>
<stop offset="0.57" stop-color="#F26F4E"/>
<stop offset="1" stop-color="#F37B3D"/>
</linearGradient>
<linearGradient id="paint2_linear" x1="45.0855" y1="52.9898" x2="9.77423" y2="30.9377" gradientUnits="userSpaceOnUse">
<stop stop-color="#7C59A4"/>
<stop offset="0.3852" stop-color="#AF4C92"/>
<stop offset="0.7654" stop-color="#DC4183"/>
<stop offset="0.957" stop-color="#ED3D7D"/>
</linearGradient>
<linearGradient id="paint3_linear" x1="44.4417" y1="3.08235" x2="9.96795" y2="31.5546" gradientUnits="userSpaceOnUse">
<stop stop-color="#EF5A6B"/>
<stop offset="0.364" stop-color="#EE4E72"/>
<stop offset="1" stop-color="#ED3D7D"/>
</linearGradient>
</defs>
</svg>
