<svg width="44" height="44" viewBox="0 0 44 44" fill="none" xmlns="http://www.w3.org/2000/svg">
<path d="M43.1417 0.639023H0.677124V43.1036H43.1417V0.639023Z" fill="black"/>
<path d="M20.2441 35.1103H4.3407V37.7747H20.2441V35.1103Z" fill="white"/>
<path d="M4.17419 11.7964L5.42315 10.6307C5.75621 11.047 6.08926 11.2968 6.50558 11.2968C7.00517 11.2968 7.25496 10.9638 7.25496 10.2976V5.88466H9.17003V10.2976C9.17003 11.1303 8.92024 11.7964 8.50392 12.2127C8.0876 12.629 7.42149 12.8788 6.58885 12.8788C5.33989 12.9621 4.67378 12.4625 4.17419 11.7964Z" fill="white"/>
<path d="M9.5863 5.96793H15.165V7.54994H11.5014V8.63237H14.8319V10.1311H11.5014V11.2136H15.2482V12.8788H9.66957L9.5863 5.96793Z" fill="white"/>
<path d="M17.663 7.63321H15.5814V5.96793H21.6597V7.63321H19.5781V12.8788H17.663V7.63321Z" fill="white"/>
<path d="M4.3407 14.4608H7.92105C8.75369 14.4608 9.4198 14.7106 9.83612 15.0437C10.0859 15.2935 10.2524 15.7098 10.2524 16.2094C10.2524 17.042 9.83612 17.4584 9.17001 17.7914C10.0026 18.0412 10.5022 18.5408 10.5022 19.4567C10.5022 20.6224 9.50306 21.3718 7.92105 21.3718H4.3407V14.4608ZM8.33737 16.6257C8.33737 16.2094 8.00431 16.0429 7.50473 16.0429H6.25577V17.2918H7.42146C8.00431 17.2086 8.33737 17.042 8.33737 16.6257ZM7.67126 18.624H6.17251V19.873H7.67126C8.2541 19.873 8.58716 19.6232 8.58716 19.2069C8.58716 18.7906 8.2541 18.624 7.67126 18.624Z" fill="white"/>
<path d="M10.8353 14.4608H14.0826C15.1651 14.4608 15.8312 14.7106 16.3307 15.2102C16.7471 15.6265 16.9136 16.1261 16.9136 16.7922C16.9136 17.8747 16.3307 18.5408 15.4981 18.9571L17.1634 21.3718H14.9985L13.583 19.2902H12.7504V21.3718H10.8353V14.4608ZM13.9994 17.7914C14.6655 17.7914 14.9985 17.4584 14.9985 16.9588C14.9985 16.3759 14.5822 16.1261 13.9994 16.1261H12.7504V17.7914H13.9994Z" fill="white"/>
<path d="M19.1617 14.4608H20.9935L23.9077 21.455H21.8261L21.3265 20.2061H18.6621L18.1625 21.455H16.1642L19.1617 14.4608ZM20.827 18.624L20.0776 16.709L19.3282 18.624H20.827Z" fill="white"/>
<path d="M24.1576 14.4608H26.0727V21.3718H24.1576V14.4608Z" fill="white"/>
<path d="M26.5721 14.4608H28.3207L31.1517 18.1245V14.4608H33.0667V21.3718H31.4015L28.4872 17.6249V21.455H26.5721V14.4608Z" fill="white"/>
<path d="M33.2333 20.3726L34.3157 19.1236C34.9818 19.7065 35.7312 19.9563 36.5638 19.9563C37.0634 19.9563 37.3965 19.7897 37.3965 19.4567C37.3965 19.1236 37.1467 19.0404 36.2308 18.7906C34.732 18.4575 33.6496 18.0412 33.6496 16.6257C33.6496 15.3767 34.6488 14.3776 36.314 14.3776C37.4797 14.3776 38.3956 14.7106 39.145 15.2935L38.1459 16.6257C37.4797 16.2094 36.8136 15.9596 36.2308 15.9596C35.7312 15.9596 35.5647 16.1261 35.5647 16.3759C35.5647 16.709 35.8145 16.7922 36.7304 17.042C38.3124 17.3751 39.3115 17.8747 39.3115 19.2069C39.3115 20.6224 38.2291 21.455 36.4806 21.455C35.2316 21.5383 34.0659 21.122 33.2333 20.3726Z" fill="white"/>
</svg>
